<svg width="20" height="18" viewBox="0 0 20 18" fill="none" xmlns="http://www.w3.org/2000/svg">
<path d="M8.25 16.5C8.25 16.772 8.16936 17.0378 8.01827 17.2639C7.86718 17.49 7.65244 17.6663 7.40119 17.7703C7.14994 17.8744 6.87347 17.9016 6.60675 17.8486C6.34003 17.7955 6.09503 17.6646 5.90273 17.4723C5.71043 17.28 5.57947 17.035 5.52642 16.7683C5.47337 16.5015 5.5006 16.2251 5.60467 15.9738C5.70874 15.7226 5.88497 15.5078 6.11109 15.3567C6.33721 15.2056 6.60305 15.125 6.875 15.125C7.23967 15.125 7.58941 15.2699 7.84727 15.5277C8.10513 15.7856 8.25 16.1353 8.25 16.5ZM15.8125 15.125C15.5406 15.125 15.2747 15.2056 15.0486 15.3567C14.8225 15.5078 14.6462 15.7226 14.5422 15.9738C14.4381 16.2251 14.4109 16.5015 14.4639 16.7683C14.517 17.035 14.6479 17.28 14.8402 17.4723C15.0325 17.6646 15.2775 17.7955 15.5443 17.8486C15.811 17.9016 16.0874 17.8744 16.3387 17.7703C16.5899 17.6663 16.8047 17.49 16.9558 17.2639C17.1069 17.0378 17.1875 16.772 17.1875 16.5C17.1875 16.1353 17.0426 15.7856 16.7848 15.5277C16.5269 15.2699 16.1772 15.125 15.8125 15.125ZM19.6023 3.7125C19.5379 3.6276 19.4547 3.55866 19.3594 3.51098C19.264 3.4633 19.159 3.43816 19.0523 3.4375H4.15078L3.45469 0.996875C3.37122 0.710142 3.19722 0.458111 2.95869 0.278434C2.72015 0.0987583 2.42988 0.00108254 2.13125 0H0.6875C0.505164 0 0.330295 0.0724328 0.201364 0.201364C0.0724328 0.330295 0 0.505164 0 0.6875C0 0.869836 0.0724328 1.0447 0.201364 1.17364C0.330295 1.30257 0.505164 1.375 0.6875 1.375H2.13125L2.97344 4.30547V4.32266L5.24219 12.2547C5.36677 12.6851 5.62761 13.0636 5.98555 13.3332C6.34349 13.6028 6.77922 13.7491 7.22734 13.75H15.4602C15.9083 13.7491 16.344 13.6028 16.702 13.3332C17.0599 13.0636 17.3207 12.6851 17.4453 12.2547L19.7141 4.31406C19.7431 4.21197 19.7482 4.10454 19.7288 4.00017C19.7094 3.8958 19.6661 3.79734 19.6023 3.7125Z" fill="#F3F2F2"/>
</svg>
